<svg width="73" height="60" viewBox="0 0 73 60" fill="none" xmlns="http://www.w3.org/2000/svg">
<path d="M69.2999 57.1099H68.1V25.75C70.82 24 72.6199 20.9602 72.6199 17.4902C72.6199 17.3102 72.57 17.1302 72.48 16.9702L64.09 2.29004C63.5 1.26004 62.4 0.620117 61.21 0.620117H11.86C10.67 0.620117 9.56995 1.26004 8.97995 2.29004L0.589951 16.9702C0.499951 17.1302 0.449951 17.3102 0.449951 17.4902C0.449951 20.9502 2.24996 24 4.96996 25.75V57.1099H3.76996C3.18996 57.1099 2.70996 57.5799 2.70996 58.1699C2.70996 58.7499 3.17996 59.23 3.76996 59.23H69.2999C69.8799 59.23 70.3599 58.7599 70.3599 58.1699C70.3599 57.5899 69.8899 57.1099 69.2999 57.1099ZM2.64995 18.5601H6.03995C6.61995 18.5601 7.09996 18.09 7.09996 17.5C7.09996 16.92 6.62995 16.4399 6.03995 16.4399H3.33995L10.82 3.33984C11.03 2.96984 11.43 2.72998 11.86 2.72998H61.21C61.64 2.72998 62.04 2.95984 62.25 3.33984L69.73 16.4399H67.03C66.45 16.4399 65.97 16.91 65.97 17.5C65.97 18.08 66.44 18.5601 67.03 18.5601H70.42C69.9 22.3101 66.68 25.2002 62.79 25.2002C58.9 25.2002 55.68 22.3001 55.17 18.5601H62.51C63.09 18.5601 63.57 18.09 63.57 17.5C63.57 16.92 63.1 16.4399 62.51 16.4399H10.5399C9.95995 16.4399 9.47995 16.91 9.47995 17.5C9.47995 18.08 9.94995 18.5601 10.5399 18.5601H17.88C17.36 22.3101 14.1399 25.2002 10.2599 25.2002C6.38995 25.2002 3.15995 22.3001 2.64995 18.5601ZM52.92 18.5601C52.4 22.3101 49.18 25.2002 45.3 25.2002C41.41 25.2002 38.1899 22.3001 37.6799 18.5601H52.92ZM35.41 18.5601C34.89 22.3101 31.6699 25.2002 27.7899 25.2002C23.8999 25.2002 20.68 22.3001 20.17 18.5601H35.41ZM7.08995 26.7798C8.08995 27.1198 9.15996 27.3101 10.27 27.3101C14.09 27.3101 17.4 25.1202 19.03 21.9302C20.65 25.1202 23.9699 27.3101 27.7899 27.3101C31.6099 27.3101 34.93 25.1202 36.55 21.9302C38.17 25.1202 41.49 27.3101 45.31 27.3101C49.13 27.3101 52.44 25.1202 54.07 21.9302C55.69 25.1202 59.0099 27.3101 62.8299 27.3101C63.9399 27.3101 65.01 27.1198 66.01 26.7798V57.1099H62.47V31.0498C62.47 30.4698 62 29.9902 61.41 29.9902H47.85C47.27 29.9902 46.7899 30.4598 46.7899 31.0498V57.1099H7.09996V26.7798H7.08995ZM60.34 51.4702H48.8999V32.1201H60.34V51.4702ZM48.8999 53.5801H60.34V57.1099H48.8999V53.5801Z" fill="white"/>
<path d="M42.1899 30H11.6899C11.1099 30 10.6299 30.4701 10.6299 31.0601V52.5298C10.6299 53.1098 11.0999 53.5898 11.6899 53.5898H42.1899C42.7699 53.5898 43.2499 53.1198 43.2499 52.5298V31.0601C43.2499 30.4701 42.7699 30 42.1899 30ZM41.1299 51.4702H12.7399V32.1201H41.1299V51.4702Z" fill="white"/>
</svg>
