<svg width="79" height="59" viewBox="0 0 79 59" fill="none" xmlns="http://www.w3.org/2000/svg">
<path d="M75.83 25.0402C75.44 23.5302 74.46 22.2304 73.13 21.4304C72.12 20.9304 70.96 20.8602 69.9 21.2302L66.88 22.2004L66.03 19.5002C65.93 19.0602 65.58 18.7301 65.14 18.6501C65.24 18.0901 65.2 17.5102 65.03 16.9602C64.22 14.9802 62.1 13.8901 60.01 14.3601C58.76 12.6301 56.7299 11.66 54.5999 11.78C53.6999 11.78 52.81 11.9204 51.96 12.2004C50.16 12.7704 48.61 13.96 47.61 15.55C46.91 15.56 46.2099 15.6703 45.54 15.8703C44.2299 16.2703 43.08 17.0902 42.28 18.2102C41.72 19.0002 41.42 19.9501 41.44 20.9201C40.63 21.3401 39.95 21.9802 39.49 22.7702C39.03 21.9602 38.34 21.3001 37.52 20.8801C37.54 19.9101 37.25 18.9601 36.68 18.1701C35.88 17.0501 34.73 16.2303 33.42 15.8303C32.76 15.6403 32.07 15.55 31.38 15.55C30.36 13.97 28.81 12.8002 27.01 12.2502C26.16 11.9702 25.27 11.8303 24.37 11.8303C22.27 11.7303 20.26 12.7004 19.03 14.4104C18.73 14.3604 18.43 14.34 18.12 14.34C16.3 14.23 14.62 15.33 14 17.05C13.83 17.6 13.79 18.1804 13.89 18.7404C13.45 18.8204 13.09 19.15 13 19.59L12.15 22.2902L9.12998 21.32C8.06998 20.95 6.9 21.0202 5.9 21.5202C4.56 22.3202 3.58998 23.6201 3.19999 25.1301L0.599948 32.9704C0.309948 33.8704 0.200002 34.82 0.280002 35.76C0.340002 37.54 1.54999 39.08 3.26999 39.55L6.21994 40.51L5.34 43.2102C2.96 43.8502 1.54998 46.3004 2.18998 48.6804C2.57998 50.1504 3.68999 51.3102 5.13999 51.7702L26.78 58.7302C27.22 58.8702 27.67 58.9404 28.13 58.9504C30.59 58.9604 32.6 56.9702 32.61 54.5002C32.61 53.4502 32.24 52.4303 31.57 51.6203L39.21 27.9001C39.32 27.5201 39.26 27.11 39.05 26.78C39.21 26.61 39.36 26.4302 39.48 26.2302C39.6 26.4302 39.7499 26.62 39.9099 26.78C39.6899 27.11 39.63 27.5201 39.75 27.9001L47.39 51.6203C45.8 53.5103 46.05 56.3204 47.94 57.9104C49.12 58.9004 50.73 59.2104 52.19 58.7404L73.83 51.78C76.18 51.04 77.49 48.5304 76.74 46.1804C76.28 44.7304 75.1299 43.6204 73.6599 43.2204L72.78 40.5202L75.8 39.55C77.49 39.06 78.6699 37.53 78.7199 35.78C78.7799 34.84 78.65 33.8904 78.34 32.9904L75.83 25.0402ZM4.03 36.9802C3.39 36.8402 2.91995 36.2801 2.90995 35.6301C2.85995 34.9901 2.94996 34.3502 3.16996 33.7502L5.68998 25.8703C5.87998 25.0503 6.35995 24.33 7.03995 23.84C7.40995 23.66 7.83998 23.66 8.19999 23.84L11.2199 24.8103L7.03995 37.9401L4.03 36.9802ZM28.74 51.6701C28.56 52.2101 28.75 52.8104 29.2 53.1604C29.79 53.6104 30.04 54.38 29.82 55.09C29.51 56.01 28.52 56.5202 27.59 56.2302L5.94999 49.2702C5.01999 48.9802 4.50996 47.99 4.79996 47.07C5.01996 46.35 5.67997 45.86 6.42997 45.84C6.98997 45.82 7.48995 45.4404 7.65995 44.9104L15.15 21.6604L16.64 22.1301L15.29 26.34L10.15 42.28C9.2 44.31 10.08 46.7201 12.12 47.6701C12.33 47.7701 12.54 47.8504 12.76 47.9104L22.92 51.1804C23.38 51.3304 23.8699 51.4201 24.3499 51.4201C26.2599 51.3501 27.89 50.0001 28.31 48.1301L33.45 32.1901L34.8 27.9802L36.25 28.4401L28.74 51.6701ZM30.43 32.6403L25.71 47.2702C25.57 47.6902 25.17 48.6203 24.36 48.6203C24.15 48.6203 23.95 48.58 23.75 48.51L13.59 45.2404C12.6 44.9204 12.3299 44.2402 12.7199 43.0202L17.44 28.3601L30.43 32.6403ZM18.25 25.8703L19.2 22.9201L28.42 25.8801L32.21 27.1003L31.26 30.0202L18.25 25.8703ZM35.13 25.2404L18.21 19.8303C17.64 19.6603 17.13 19.3103 16.78 18.8303C16.56 18.5603 16.48 18.2103 16.55 17.8703C16.86 17.3103 17.47 17 18.11 17.09C18.44 17.09 18.76 17.1502 19.07 17.2502H19.23C19.93 17.5202 20.7099 17.1602 20.9699 16.4602C20.9799 16.4302 20.99 16.4101 21 16.3801C21.59 15.1001 22.94 14.3402 24.34 14.5002C24.95 14.5102 25.56 14.61 26.14 14.8C27.53 15.21 28.68 16.1902 29.29 17.5002C29.53 18.0902 30.15 18.4403 30.78 18.3303C31.38 18.2303 32 18.2902 32.58 18.4802C33.33 18.7202 33.98 19.1903 34.43 19.8303C34.74 20.2103 34.86 20.7004 34.77 21.1804L34.69 21.3703C34.41 22.0603 34.74 22.8503 35.43 23.1403C35.49 23.1603 35.55 23.1804 35.61 23.2004H35.81C36.84 23.5204 37.41 24.3403 37.24 24.8503C37.08 25.3603 36.05 25.5404 35.13 25.2404ZM41.7199 24.7404C41.5599 24.2404 42.14 23.39 43.18 23.09H43.36C44.08 22.91 44.52 22.1704 44.34 21.4504C44.32 21.3904 44.3 21.3302 44.28 21.2702V21.1804C44.18 20.7104 44.28 20.2103 44.58 19.8303C45.03 19.1903 45.68 18.7102 46.43 18.4802C47.01 18.2902 47.63 18.2303 48.23 18.3303C48.86 18.4403 49.4799 18.1 49.7199 17.51C50.3299 16.2 51.48 15.21 52.87 14.8C53.45 14.61 54.06 14.5102 54.67 14.5002C56.05 14.3502 57.37 15.0703 57.98 16.3103C58.08 16.6803 58.33 17.0004 58.67 17.1804C59.02 17.3404 59.43 17.3404 59.78 17.1804L59.96 17.1003C61.06 16.7503 62.25 17.1004 62.46 17.7404C62.53 18.0804 62.45 18.4304 62.23 18.7004C61.87 19.1804 61.37 19.5304 60.8 19.7004L43.88 25.1101C42.91 25.5401 41.8799 25.2704 41.7199 24.7404ZM61.56 28.4401L66.28 43.1003C66.67 44.3203 66.3999 44.99 65.4099 45.32L55.25 48.6203C55.05 48.6903 54.85 48.7202 54.64 48.7302C53.8 48.7302 53.4 47.7401 53.29 47.3801L48.54 32.6403L61.56 28.4401ZM47.71 30.07L46.76 27.1501L50.55 25.9304L59.77 22.9304L60.7199 25.8503L47.71 30.07ZM74.1599 47.0402C74.4599 47.9702 73.95 48.9702 73.02 49.2702L51.38 56.2302C50.45 56.5202 49.46 56.02 49.15 55.09C48.93 54.38 49.18 53.6104 49.77 53.1604C50.22 52.8104 50.41 52.2201 50.23 51.6701L42.75 28.4201L44.2 27.9602L45.55 32.1701L50.69 48.1301C51.11 50.0001 52.74 51.3501 54.65 51.4201C55.14 51.4101 55.62 51.3304 56.08 51.1804L66.24 47.9104C68.4 47.3204 69.68 45.0904 69.09 42.9304C69.03 42.7104 68.9499 42.4902 68.8499 42.2902L63.71 26.3503L62.36 22.1403L63.8499 21.6701L71.33 44.9201C71.5 45.4601 72 45.8303 72.56 45.8503C73.3 45.8703 73.9299 46.3502 74.1599 47.0402ZM76 35.5603C75.98 36.2203 75.52 36.7804 74.88 36.9104L71.95 37.9401L67.7 24.7502L70.7199 23.78C71.0899 23.6 71.52 23.6 71.88 23.78C72.56 24.27 73.0399 25 73.2299 25.82L75.81 33.7502C76 34.3302 76.06 34.9503 76 35.5603Z" fill="white"/>
<path d="M39.24 13.46C39.99 13.46 40.59 12.8499 40.59 12.1099V1.70996C40.59 0.959961 39.98 0.359863 39.24 0.359863C38.49 0.359863 37.89 0.969961 37.89 1.70996V12.1099C37.89 12.8499 38.5 13.46 39.24 13.46Z" fill="white"/>
<path d="M43.19 14.3701C43.85 14.7201 44.67 14.4598 45.02 13.7998L50.43 3.39987C50.73 2.70987 50.41 1.92009 49.72 1.62009C49.1 1.35009 48.38 1.57987 48.03 2.14987L42.62 12.5498C42.29 13.2098 42.54 14.0201 43.19 14.3701Z" fill="white"/>
<path d="M33.47 13.7996C33.77 14.4896 34.56 14.7996 35.25 14.5096C35.94 14.2096 36.25 13.4198 35.96 12.7298C35.93 12.6698 35.9 12.6099 35.87 12.5599L30.46 2.15995C30.07 1.51995 29.24 1.33001 28.6 1.72001C28.03 2.07001 27.8 2.78995 28.07 3.40995L33.47 13.7996Z" fill="white"/>
</svg>
