<svg width="131" height="116" viewBox="0 0 131 116" fill="none" xmlns="http://www.w3.org/2000/svg">
<path d="M128.07 115.42H2.92001C1.39001 115.42 0.150009 114.18 0.150009 112.65C0.150009 111.12 1.39001 109.88 2.92001 109.88H128.08C129.61 109.88 130.85 111.12 130.85 112.65C130.85 114.18 129.6 115.42 128.07 115.42ZM122.99 102.8C121.46 102.8 120.22 101.56 120.22 100.03V38.8501H51.28C49.75 38.8501 48.51 37.6101 48.51 36.0801C48.51 34.5501 49.75 33.3101 51.28 33.3101H122.99C124.52 33.3101 125.76 34.5501 125.76 36.0801V100.03C125.76 101.56 124.52 102.8 122.99 102.8ZM26.83 102.8C25.3 102.8 24.06 101.56 24.06 100.03V54.6699C24.06 53.1399 25.3 51.8999 26.83 51.8999C28.36 51.8999 29.6 53.1399 29.6 54.6699V100.03C29.6 101.56 28.36 102.8 26.83 102.8ZM111.23 97.29H99.95C98.42 97.29 97.18 96.05 97.18 94.52V78.4199C97.18 76.8899 98.42 75.6499 99.95 75.6499H111.23C112.76 75.6499 114 76.8899 114 78.4199V94.52C114 96.05 112.76 97.29 111.23 97.29ZM102.72 91.75H108.46V81.1799H102.72V91.75ZM88.63 97.29H77.35C75.82 97.29 74.58 96.05 74.58 94.52V78.4199C74.58 76.8899 75.82 75.6499 77.35 75.6499H88.63C90.16 75.6499 91.4 76.8899 91.4 78.4199V94.52C91.4 96.05 90.16 97.29 88.63 97.29ZM80.13 91.75H85.87V81.1799H80.13V91.75ZM66.03 97.29H54.75C53.22 97.29 51.98 96.05 51.98 94.52V78.4199C51.98 76.8899 53.22 75.6499 54.75 75.6499H66.03C67.56 75.6499 68.8 76.8899 68.8 78.4199V94.52C68.8 96.05 67.56 97.29 66.03 97.29ZM57.53 91.75H63.27V81.1799H57.53V91.75ZM14.59 85.8701C13.69 85.8701 12.81 85.4301 12.27 84.6201C10.55 82.0001 9.58002 78.9801 9.44002 75.8601C3.81002 72.8701 0.140015 66.91 0.140015 60.47C0.140015 54.04 3.81002 48.0801 9.44002 45.0801C9.83002 35.8301 17.48 28.4199 26.83 28.4199C36.18 28.4199 43.83 35.8201 44.22 45.0801C49.85 48.0701 53.52 54.03 53.52 60.47C53.52 66.9 49.85 72.8701 44.22 75.8601C44.09 78.9701 43.12 81.9701 41.41 84.5801C40.58 85.8601 38.86 86.2199 37.58 85.3899C36.3 84.5499 35.94 82.8401 36.77 81.5601C38.03 79.6301 38.69 77.4001 38.69 75.1101C38.69 74.8501 38.68 74.58 38.66 74.29C38.58 73.09 39.29 71.96 40.41 71.52C44.93 69.74 47.97 65.3 47.97 60.47C47.97 55.64 44.93 51.1999 40.41 49.4199C39.29 48.9799 38.58 47.8599 38.66 46.6499C38.68 46.3599 38.69 46.0901 38.69 45.8301C38.69 39.2901 33.37 33.96 26.82 33.96C20.28 33.96 14.95 39.2801 14.95 45.8301C14.95 46.1001 14.96 46.3699 14.98 46.6499C15.06 47.8499 14.36 48.9799 13.23 49.4199C8.71001 51.1999 5.67001 55.64 5.67001 60.47C5.67001 65.3 8.71001 69.74 13.23 71.53C14.35 71.97 15.06 73.09 14.98 74.3C14.96 74.59 14.95 74.8501 14.95 75.1201C14.95 77.4201 15.62 79.6601 16.89 81.5901C17.73 82.8701 17.37 84.5799 16.09 85.4199C15.63 85.7299 15.11 85.8701 14.59 85.8701ZM111.23 68.3301H99.95C98.42 68.3301 97.18 67.0901 97.18 65.5601V49.46C97.18 47.93 98.42 46.6899 99.95 46.6899H111.23C112.76 46.6899 114 47.93 114 49.46V65.5601C114 67.0901 112.76 68.3301 111.23 68.3301ZM102.72 62.79H108.46V52.22H102.72V62.79ZM88.63 68.3301H77.35C75.82 68.3301 74.58 67.0901 74.58 65.5601V49.46C74.58 47.93 75.82 46.6899 77.35 46.6899H88.63C90.16 46.6899 91.4 47.93 91.4 49.46V65.5601C91.4 67.0901 90.16 68.3301 88.63 68.3301ZM80.13 62.79H85.87V52.22H80.13V62.79ZM66.03 68.3301H60.79C59.26 68.3301 58.02 67.0901 58.02 65.5601C58.02 64.0301 59.26 62.79 60.79 62.79H63.27V52.22H60.79C59.26 52.22 58.02 50.9799 58.02 49.45C58.02 47.92 59.26 46.6799 60.79 46.6799H66.03C67.56 46.6799 68.8 47.92 68.8 49.45V65.55C68.8 67.09 67.56 68.3301 66.03 68.3301ZM114.87 28.3201C113.34 28.3201 112.1 27.08 112.1 25.55V6.12012H72.75V25.55C72.75 27.08 71.51 28.3201 69.98 28.3201C68.45 28.3201 67.21 27.08 67.21 25.55V3.3501C67.21 1.8201 68.45 0.580078 69.98 0.580078H114.87C116.4 0.580078 117.64 1.8201 117.64 3.3501V25.55C117.63 27.08 116.39 28.3201 114.87 28.3201ZM103.35 23.8101C101.82 23.8101 100.58 22.57 100.58 21.04V15.6599C100.58 14.1299 101.82 12.8899 103.35 12.8899C104.88 12.8899 106.12 14.1299 106.12 15.6599V21.04C106.12 22.57 104.88 23.8101 103.35 23.8101ZM92.42 23.8101C90.89 23.8101 89.65 22.57 89.65 21.04V15.6599C89.65 14.1299 90.89 12.8899 92.42 12.8899C93.95 12.8899 95.19 14.1299 95.19 15.6599V21.04C95.19 22.57 93.95 23.8101 92.42 23.8101ZM81.49 23.8101C79.96 23.8101 78.72 22.57 78.72 21.04V15.6599C78.72 14.1299 79.96 12.8899 81.49 12.8899C83.02 12.8899 84.26 14.1299 84.26 15.6599V21.04C84.26 22.57 83.02 23.8101 81.49 23.8101Z" fill="#00B3E6"/>
</svg>
