<svg width="77" height="60" viewBox="0 0 77 60" fill="none" xmlns="http://www.w3.org/2000/svg">
<path d="M75.81 20.2099L39.18 0.680098C38.82 0.490098 38.39 0.490098 38.03 0.680098L1.40002 20.2099C1.00002 20.4199 0.75 20.84 0.75 21.29C0.75 21.74 1.00002 22.15 1.40002 22.37L11.74 27.8901V43.2699H14.18V29.1899L17.84 31.1401V38.56C15.74 39.11 14.18 40.9999 14.18 43.2699C14.18 44.3899 14.57 45.3999 15.2 46.2299C14.53 48.5099 14.18 50.8602 14.18 53.2402V56.7001C14.18 57.1601 14.44 57.59 14.85 57.79L16.2 58.4599C17.08 58.8999 18.07 59.1298 19.06 59.1298C20.05 59.1298 21.04 58.8999 21.92 58.4599L23.27 57.7797C23.68 57.5697 23.94 57.1499 23.94 56.6899V53.2299C23.94 50.8499 23.58 48.5001 22.92 46.2201C23.55 45.4001 23.94 44.3797 23.94 43.2597C23.94 40.9897 22.38 39.0997 20.28 38.5497V32.4399L38.02 41.8998C38.2 41.9998 38.4 42.04 38.59 42.04C38.78 42.04 38.98 41.9898 39.16 41.8998L63 29.1801V42.6601C56.21 47.7801 47.82 50.5898 39.31 50.5898H37.85C33.66 50.5898 29.52 49.9198 25.53 48.6098L24.77 50.9301C29 52.3201 33.4 53.0297 37.85 53.0297H39.31C48.56 53.0297 57.67 49.8999 64.97 44.2299C65.27 43.9999 65.44 43.6399 65.44 43.2699V27.8901L75.78 22.37C76.18 22.16 76.43 21.74 76.43 21.29C76.43 20.84 76.21 20.4199 75.81 20.2099ZM21.51 55.9399L20.84 56.2797C19.75 56.8297 18.4 56.8297 17.31 56.2797L16.64 55.9399V53.2299C16.64 51.3899 16.86 49.5797 17.3 47.7997C17.85 48.0197 18.45 48.1498 19.08 48.1498C19.71 48.1498 20.31 48.0197 20.86 47.7997C21.3 49.5697 21.52 51.3899 21.52 53.2299V55.9399H21.51ZM21.51 43.2597C21.51 44.6097 20.41 45.7001 19.07 45.7001C17.72 45.7001 16.63 44.5997 16.63 43.2597C16.63 41.9097 17.73 40.8197 19.07 40.8197C20.42 40.8197 21.51 41.9197 21.51 43.2597ZM38.61 39.4399L21.14 30.12L36.27 22.0497C36.96 22.3297 37.76 22.5097 38.62 22.5097C41.36 22.5097 43.5 20.9 43.5 18.85C43.5 16.8 41.35 15.1899 38.62 15.1899C35.88 15.1899 33.74 16.8 33.74 18.85C33.74 19.41 33.91 19.9298 34.2 20.3998L18.56 28.7402L4.59003 21.29L38.62 3.14006L72.65 21.29L38.61 39.4399ZM36.17 18.85C36.17 18.35 37.12 17.6298 38.61 17.6298C40.1 17.6298 41.05 18.35 41.05 18.85C41.05 19.35 40.1 20.0697 38.61 20.0697C37.12 20.0697 36.17 19.34 36.17 18.85Z" fill="white"/>
</svg>
