<svg width="91" height="60" viewBox="0 0 91 60" fill="none" xmlns="http://www.w3.org/2000/svg">
<path d="M66.72 12.96C66.04 13.42 65.87 14.3398 66.32 15.0098C69.32 19.4498 70.9 24.6298 70.9 30.0098C70.9 44.7998 58.86 56.8398 44.07 56.8398C29.28 56.8398 17.24 44.7998 17.24 30.0098C17.24 15.2198 29.28 3.18018 44.07 3.18018C51.24 3.18018 57.97 5.97004 63.04 11.04C63.62 11.62 64.55 11.62 65.13 11.04C65.71 10.46 65.71 9.5302 65.13 8.9502C59.5 3.3202 52.02 0.22998 44.07 0.22998C27.65 0.22998 14.29 13.59 14.29 30.02C14.29 46.45 27.65 59.8101 44.07 59.8101C60.49 59.8101 73.85 46.45 73.85 30.02C73.85 24.05 72.09 18.2901 68.76 13.3701C68.31 12.6801 67.39 12.51 66.72 12.96Z" fill="white"/>
<path d="M58.03 41.9199C58.69 42.3999 59.62 42.2498 60.09 41.5898C62.54 38.2098 63.83 34.1998 63.83 30.0098C63.83 19.1098 54.96 10.2402 44.06 10.2402C33.16 10.2402 24.29 19.1098 24.29 30.0098C24.29 40.9098 33.16 49.7798 44.06 49.7798C48.53 49.7798 52.92 48.2402 56.4 45.4502C57.04 44.9402 57.14 44.0101 56.63 43.3701C56.12 42.7301 55.19 42.6301 54.55 43.1401C51.54 45.5501 47.91 46.8198 44.05 46.8198C34.78 46.8198 27.24 39.2798 27.24 30.0098C27.24 20.7398 34.78 13.2002 44.05 13.2002C53.32 13.2002 60.86 20.7398 60.86 30.0098C60.86 33.5698 59.76 36.9801 57.68 39.8501C57.22 40.5201 57.37 41.4399 58.03 41.9199Z" fill="white"/>
<path d="M15.09 17.0498V3.06001C15.09 2.25001 14.47 1.53997 13.66 1.51997C12.82 1.49997 12.14 2.16995 12.14 2.99995V14.1098C12.14 14.9198 11.48 15.58 10.67 15.58C9.86 15.58 9.2 14.9198 9.2 14.1098V3.06001C9.2 2.25001 8.57997 1.53997 7.76997 1.51997C6.92997 1.49997 6.24998 2.16995 6.24998 2.99995V14.1098C6.24998 14.9198 5.58998 15.58 4.77998 15.58C3.96998 15.58 3.30998 14.9198 3.30998 14.1098V3.06001C3.30998 2.25001 2.68999 1.53997 1.87999 1.51997C1.03999 1.49997 0.359985 2.16995 0.359985 2.99995V17.0498C0.359985 19.0198 1.12999 20.8697 2.51999 22.2597C3.55999 23.2997 4.84998 23.98 6.24998 24.27V42.35C4.92998 42.66 3.90998 43.7999 3.78998 45.1899L3.04999 54.1201C2.93999 55.4701 3.39998 56.81 4.30998 57.81C5.22998 58.81 6.52999 59.3798 7.87999 59.3798C9.22999 59.3798 10.53 58.81 11.45 57.81C12.37 56.81 12.83 55.4701 12.71 54.1201L11.97 45.1899C11.84 43.6899 10.66 42.48 9.2 42.29V24.2597C12.56 23.5797 15.09 20.6098 15.09 17.0498ZM3.56999 18.5297H11.88C11.27 20.2397 9.63999 21.4702 7.71999 21.4702C6.53999 21.4702 5.42999 21.0101 4.59999 20.1801C4.12999 19.7001 3.77999 19.1397 3.56999 18.5297ZM9.26997 55.81C8.90997 56.2 8.40999 56.4199 7.87999 56.4199C7.33999 56.4199 6.84998 56.2 6.48997 55.81C6.12997 55.42 5.94998 54.9101 5.99998 54.3701L6.73997 45.4399C6.74998 45.3199 6.86 45.2202 6.98 45.2202H8.78999C8.90999 45.2202 9.01998 45.3199 9.02998 45.4399L9.76997 54.3701C9.80997 54.9101 9.62997 55.42 9.26997 55.81Z" fill="white"/>
<path d="M87.58 21.71C89.33 19.95 90.21 17.36 90.21 14C90.21 10.67 89.34 7.53014 87.76 5.14014C86.06 2.56014 83.73 1.14014 81.21 1.14014C78.69 1.14014 76.36 2.56014 74.66 5.14014C73.08 7.53014 72.21 10.67 72.21 14C72.21 17.36 73.1 19.95 74.84 21.71C76.09 22.97 77.76 23.7498 79.73 24.0098V42.3198C78.34 42.5798 77.23 43.7502 77.12 45.2002L76.38 54.1299C76.27 55.4799 76.73 56.8198 77.64 57.8198C78.56 58.8198 79.86 59.3901 81.21 59.3901C82.56 59.3901 83.86 58.8198 84.78 57.8198C85.7 56.8198 86.16 55.4799 86.04 54.1299L85.3 45.2002C85.18 43.7502 84.07 42.5798 82.69 42.3198V24.0098C84.65 23.7498 86.32 22.97 87.58 21.71ZM75.17 14C75.17 8.63 77.94 4.1001 81.21 4.1001C84.48 4.1001 87.25 8.63 87.25 14C87.25 18.74 85.22 21.1499 81.21 21.1499C77.2 21.1399 75.17 18.74 75.17 14ZM82.6 55.8101C82.24 56.2001 81.74 56.4199 81.21 56.4199C80.67 56.4199 80.18 56.2001 79.82 55.8101C79.46 55.4201 79.28 54.9101 79.33 54.3701L80.07 45.4399C80.08 45.3199 80.19 45.2202 80.31 45.2202H82.12C82.24 45.2202 82.35 45.3199 82.36 45.4399L83.1 54.3701C83.14 54.9101 82.96 55.4201 82.6 55.8101Z" fill="white"/>
</svg>
