<svg width="58" height="70" viewBox="0 0 58 70" fill="none" xmlns="http://www.w3.org/2000/svg">
<path d="M47.74 63.6699H5.02002C2.62002 63.6699 0.660034 61.7101 0.660034 59.3101V32.3301C0.660034 31.5301 1.30999 30.8799 2.10999 30.8799C2.90999 30.8799 3.56006 31.5301 3.56006 32.3301V59.3101C3.56006 60.1101 4.21001 60.76 5.01001 60.76H47.73C48.53 60.76 49.1801 60.1101 49.1801 59.3101V5.25C49.1801 4.45 48.53 3.80005 47.73 3.80005H5.01001C4.21001 3.80005 3.56006 4.45 3.56006 5.25V20.0701C3.56006 20.8701 2.90999 21.52 2.10999 21.52C1.30999 21.52 0.660034 20.8701 0.660034 20.0701V5.25C0.660034 2.85 2.62002 0.889893 5.02002 0.889893H47.74C50.14 0.889893 52.1 2.85 52.1 5.25V59.3101C52.1 61.7101 50.15 63.6699 47.74 63.6699Z" fill="white"/>
<path d="M2.10999 28.03C1.72999 28.03 1.34996 27.8701 1.07996 27.6001C0.809956 27.3301 0.650024 26.9501 0.650024 26.5701C0.650024 26.1901 0.809956 25.81 1.07996 25.54C1.34996 25.27 1.72999 25.1201 2.10999 25.1201C2.48999 25.1201 2.87001 25.27 3.14001 25.54C3.41001 25.81 3.56995 26.1901 3.56995 26.5701C3.56995 26.9501 3.41001 27.3301 3.14001 27.6001C2.87001 27.8701 2.49999 28.03 2.10999 28.03Z" fill="white"/>
<path d="M7.93005 69.49C7.55005 69.49 7.17002 69.3401 6.90002 69.0601C6.63002 68.7901 6.46997 68.42 6.46997 68.03C6.46997 67.65 6.63002 67.27 6.90002 67C7.17002 66.73 7.55005 66.5701 7.93005 66.5701C8.31005 66.5701 8.68996 66.73 8.95996 67C9.22996 67.27 9.39001 67.65 9.39001 68.03C9.39001 68.41 9.22996 68.7901 8.95996 69.0601C8.68996 69.3301 8.32005 69.49 7.93005 69.49Z" fill="white"/>
<path d="M53.5601 69.49H13.74C12.94 69.49 12.29 68.84 12.29 68.04C12.29 67.24 12.94 66.5901 13.74 66.5901H53.5601C54.3601 66.5901 55.01 65.9399 55.01 65.1399V8.17993C55.01 7.37993 55.66 6.72998 56.46 6.72998C57.26 6.72998 57.91 7.37993 57.91 8.17993V65.1399C57.92 67.5299 55.9701 69.49 53.5601 69.49Z" fill="white"/>
<path d="M24.2 28.5H10.25C9.45 28.5 8.80005 27.85 8.80005 27.05V13.1001C8.80005 12.3001 9.45 11.6499 10.25 11.6499H24.2C25 11.6499 25.65 12.3001 25.65 13.1001V27.05C25.65 27.85 25 28.5 24.2 28.5ZM11.7 25.5901H22.74V14.55H11.7V25.5901Z" fill="white"/>
<path d="M13.61 42.47C13.22 42.47 12.86 42.32 12.58 42.04L9.76002 39.22C9.19002 38.65 9.19002 37.7299 9.76002 37.1599C10.33 36.5899 11.25 36.5899 11.82 37.1599L13.62 38.96L17.48 35.1001C18.05 34.5301 18.97 34.5301 19.54 35.1001C20.11 35.6701 20.11 36.5899 19.54 37.1499L14.65 42.04C14.36 42.31 13.99 42.47 13.61 42.47Z" fill="white"/>
<path d="M43.33 39.98H26.38C25.58 39.98 24.9301 39.33 24.9301 38.53C24.9301 37.73 25.58 37.0801 26.38 37.0801H43.33C44.13 37.0801 44.78 37.73 44.78 38.53C44.79 39.33 44.14 39.98 43.33 39.98Z" fill="white"/>
<path d="M42.51 14.55H32.34C31.54 14.55 30.89 13.9001 30.89 13.1001C30.89 12.3001 31.54 11.6499 32.34 11.6499H42.51C43.31 11.6499 43.96 12.3001 43.96 13.1001C43.96 13.9001 43.31 14.55 42.51 14.55Z" fill="white"/>
<path d="M42.51 21.52H32.34C31.54 21.52 30.89 20.8701 30.89 20.0701C30.89 19.2701 31.54 18.6201 32.34 18.6201H42.51C43.31 18.6201 43.96 19.2701 43.96 20.0701C43.96 20.8701 43.31 21.52 42.51 21.52Z" fill="white"/>
<path d="M42.51 28.5H32.34C31.54 28.5 30.89 27.85 30.89 27.05C30.89 26.25 31.54 25.6001 32.34 25.6001H42.51C43.31 25.6001 43.96 26.25 43.96 27.05C43.96 27.85 43.31 28.5 42.51 28.5Z" fill="white"/>
<path d="M13.61 53.5701C13.22 53.5701 12.86 53.4199 12.58 53.1399L9.76002 50.3201C9.19002 49.7501 9.19002 48.83 9.76002 48.27C10.33 47.7 11.25 47.7 11.82 48.27L13.62 50.0701L17.48 46.21C18.05 45.64 18.97 45.64 19.54 46.21C20.11 46.78 20.11 47.7 19.54 48.27L14.65 53.1599C14.36 53.4099 13.99 53.5701 13.61 53.5701Z" fill="white"/>
<path d="M43.33 51.02H26.38C25.58 51.02 24.9301 50.3701 24.9301 49.5701C24.9301 48.7701 25.58 48.1201 26.38 48.1201H43.33C44.13 48.1201 44.78 48.7701 44.78 49.5701C44.78 50.3701 44.14 51.02 43.33 51.02Z" fill="white"/>
</svg>
