<svg width="60" height="60" viewBox="0 0 60 60" fill="none" xmlns="http://www.w3.org/2000/svg">
<path d="M57.84 22.6602H4.12C3.45 22.6602 2.90002 23.2099 2.90002 23.8799V53.1802C2.90002 56.5402 5.64 59.2798 9 59.2798H52.95C56.32 59.2798 59.05 56.5402 59.05 53.1802V23.8799C59.06 23.2099 58.51 22.6602 57.84 22.6602ZM56.62 53.1899C56.62 55.2099 54.98 56.8501 52.96 56.8501H9C6.98 56.8501 5.33997 55.2099 5.33997 53.1899V25.1099H56.62V53.1899Z" fill="white"/>
<path d="M59.02 11.3702L56.94 3.4903C56.46 1.5703 54.5001 0.370122 52.5601 0.810122L3.37001 12.48C2.40001 12.7 1.59008 13.2899 1.06008 14.1299C0.540077 14.9699 0.390023 15.97 0.630023 16.94L2.93007 26.0298C3.07007 26.5798 3.56 26.9503 4.11 26.9503C4.21 26.9503 4.31005 26.9402 4.41005 26.9102C5.06005 26.7502 5.46006 26.0802 5.29006 25.4302L5.16005 24.9L58.1 12.8702C58.42 12.7902 58.7 12.5901 58.87 12.3101C59.06 12.0301 59.11 11.6902 59.02 11.3702ZM4.56996 22.5298L3.00002 16.3399C2.92002 16.0199 2.97003 15.69 3.14003 15.4C3.31003 15.12 3.59006 14.9202 3.92006 14.8502L53.11 3.18024C53.2 3.16024 53.29 3.14997 53.38 3.14997C53.93 3.14997 54.43 3.52991 54.57 4.08991L56.33 10.7701L4.56996 22.5298Z" fill="white"/>
<path d="M14.4301 22.7901C13.8201 22.4901 13.1001 22.7299 12.7901 23.3399L7.91005 33.1099C7.61005 33.7099 7.84998 34.44 8.45998 34.75C8.63998 34.84 8.82002 34.8799 9.01002 34.8799C9.46002 34.8799 9.88999 34.6302 10.1 34.2002L14.98 24.4302C15.28 23.8302 15.0401 23.0901 14.4301 22.7901Z" fill="white"/>
<path d="M26.64 22.7901C26.04 22.4901 25.3 22.7299 25 23.3399L20.12 33.1099C19.82 33.7099 20.06 34.44 20.67 34.75C20.85 34.84 21.03 34.8799 21.22 34.8799C21.67 34.8799 22.1 34.6302 22.31 34.2002L27.1899 24.4302C27.4899 23.8302 27.24 23.0901 26.64 22.7901Z" fill="white"/>
<path d="M38.85 22.7901C38.25 22.4901 37.52 22.7299 37.21 23.3399L32.3299 33.1099C32.0299 33.7099 32.27 34.44 32.88 34.75C33.06 34.84 33.24 34.8799 33.43 34.8799C33.88 34.8799 34.31 34.6302 34.52 34.2002L39.4 24.4302C39.7 23.8302 39.45 23.0901 38.85 22.7901Z" fill="white"/>
<path d="M51.0601 22.7901C50.4501 22.4901 49.7301 22.7299 49.4201 23.3399L44.5401 33.1099C44.2401 33.7099 44.48 34.44 45.09 34.75C45.27 34.84 45.45 34.8799 45.64 34.8799C46.09 34.8799 46.52 34.6302 46.73 34.2002L51.61 24.4302C51.91 23.8302 51.6601 23.0901 51.0601 22.7901Z" fill="white"/>
<path d="M57.84 32.4302H4.12C3.45 32.4302 2.90002 32.9799 2.90002 33.6499C2.90002 34.3199 3.45 34.8701 4.12 34.8701H57.84C58.52 34.8701 59.0601 34.3199 59.0601 33.6499C59.0601 32.9799 58.51 32.4302 57.84 32.4302Z" fill="white"/>
<path d="M15.9301 20.5299L7.52003 12.1203C7.04003 11.6403 6.27005 11.6403 5.79005 12.1203C5.31005 12.6003 5.31005 13.3702 5.79005 13.8502L14.2 22.2599C14.44 22.4999 14.7501 22.6203 15.0601 22.6203C15.3701 22.6203 15.6801 22.4999 15.9201 22.2599C16.4001 21.7799 16.4001 21.0099 15.9301 20.5299Z" fill="white"/>
<path d="M27.87 17.82L19.45 9.41029C18.97 8.93029 18.2 8.93029 17.72 9.41029C17.24 9.89029 17.24 10.6603 17.72 11.1403L26.13 19.5499C26.37 19.7899 26.68 19.9103 26.99 19.9103C27.3 19.9103 27.62 19.7899 27.85 19.5499C28.35 19.0699 28.35 18.3 27.87 17.82Z" fill="white"/>
<path d="M39.8101 15.11L31.41 6.70033C30.93 6.22033 30.1601 6.22033 29.6801 6.70033C29.2001 7.18033 29.2001 7.95031 29.6801 8.43031L38.08 16.84C38.32 17.08 38.63 17.2003 38.94 17.2003C39.25 17.2003 39.5701 17.08 39.8001 16.84C40.2801 16.36 40.2801 15.58 39.8101 15.11Z" fill="white"/>
<path d="M51.74 12.4L43.33 3.99037C42.85 3.51037 42.08 3.51037 41.6 3.99037C41.12 4.47037 41.12 5.24035 41.6 5.72035L50 14.13C50.24 14.37 50.55 14.4904 50.86 14.4904C51.17 14.4904 51.49 14.37 51.72 14.13C52.21 13.65 52.21 12.87 51.74 12.4Z" fill="white"/>
</svg>
