<svg width="104" height="60" viewBox="0 0 104 60" fill="none" xmlns="http://www.w3.org/2000/svg">
<path d="M97.23 20.3301H95.65V16.04C95.65 11.09 91.6201 7.06982 86.6801 7.06982H84.4399C83.4899 3.53982 80.2699 0.939941 76.4399 0.939941C71.8699 0.939941 68.16 4.65021 68.16 9.22021V22.9199H36.05V9.22021C36.05 4.65021 32.34 0.939941 27.77 0.939941C23.95 0.939941 20.72 3.53982 19.77 7.06982H17.53C12.58 7.06982 8.56006 11.1 8.56006 16.04V20.3301H6.97998C3.49998 20.3301 0.660034 23.1599 0.660034 26.6499V33.8101C0.660034 37.2901 3.48998 40.1299 6.97998 40.1299H8.56006V44.4399C8.56006 49.3899 12.59 53.4102 17.53 53.4102H19.77C20.72 56.9402 23.94 59.54 27.77 59.54C32.34 59.54 36.05 55.8298 36.05 51.2598V37.5601H63.58C64.41 37.5601 65.09 36.8898 65.09 36.0498C65.09 35.2098 64.42 34.54 63.58 34.54H36.05V25.9399H68.16V51.2598C68.16 55.8298 71.8699 59.54 76.4399 59.54C80.2599 59.54 83.4899 56.9402 84.4399 53.4102H86.6801C91.6301 53.4102 95.65 49.3799 95.65 44.4399V40.1299H97.23C100.71 40.1299 103.55 37.3001 103.55 33.8101V26.6499C103.55 23.1699 100.72 20.3301 97.23 20.3301ZM6.97998 37.1099C5.15998 37.1099 3.68005 35.6301 3.68005 33.8101V26.6499C3.68005 24.8299 5.15998 23.3501 6.97998 23.3501H8.56006V37.1099H6.97998ZM33.03 51.2598C33.03 54.1598 30.67 56.5298 27.76 56.5298C24.86 56.5298 22.49 54.1698 22.49 51.2598V20.8501C22.49 20.0201 21.82 19.3398 20.98 19.3398C20.15 19.3398 19.47 20.0101 19.47 20.8501V50.3999H17.52C14.23 50.3999 11.5601 47.7299 11.5601 44.4399V16.04C11.5601 12.75 14.23 10.0801 17.52 10.0801H19.47V14.1699C19.47 14.9999 20.14 15.6802 20.98 15.6802C21.81 15.6802 22.49 15.0099 22.49 14.1699V9.20996C22.49 6.30996 24.85 3.93994 27.76 3.93994C30.66 3.93994 33.03 6.29996 33.03 9.20996V51.2598ZM81.71 51.2598C81.71 54.1598 79.3499 56.5298 76.4399 56.5298C73.5299 56.5298 71.17 54.1698 71.17 51.2598V9.22021C71.17 6.32021 73.5299 3.9502 76.4399 3.9502C79.3499 3.9502 81.71 6.31021 81.71 9.22021V51.2598ZM92.64 44.4399C92.64 47.7299 89.9701 50.3999 86.6801 50.3999H84.73V10.0801H86.6801C89.9701 10.0801 92.64 12.75 92.64 16.04V44.4399ZM100.54 33.7998C100.54 35.6198 99.06 37.1001 97.24 37.1001H95.66V23.3398H97.24C99.06 23.3398 100.54 24.8201 100.54 26.6401V33.7998Z" fill="white"/>
</svg>
